<?xml version="1.0" standalone="no"?>
<!DOCTYPE svg PUBLIC "-//W3C//DTD SVG 20010904//EN"
 "http://www.w3.org/TR/2001/REC-SVG-20010904/DTD/svg10.dtd">
<svg version="1.0" xmlns="http://www.w3.org/2000/svg"
 width="512.000000pt" height="512.000000pt" viewBox="0 0 512.000000 512.000000"
 preserveAspectRatio="xMidYMid meet">
<metadata>
Created by potrace 1.14, written by Peter Selinger 2001-2017
</metadata>
<g transform="translate(0.000000,512.000000) scale(0.100000,-0.100000)"
fill="#000000" stroke="none">
<path d="M2390 3650 c-454 -3 -787 -8 -740 -12 75 -6 1630 1 1638 7 10 9 -158
9 -898 5z"/>
<path d="M1538 3643 c7 -3 16 -2 19 1 4 3 -2 6 -13 5 -11 0 -14 -3 -6 -6z"/>
<path d="M1915 3570 c-259 -3 -425 -7 -370 -8 319 -11 1992 1 2004 14 5 5
-984 1 -1634 -6z"/>
<path d="M1534 3519 c-4 -8 239 -10 866 -8 479 2 874 7 876 11 3 4 -386 8
-865 8 -616 0 -872 -3 -877 -11z"/>
<path d="M2253 3207 c-18 -6 -33 -15 -33 -21 0 -6 -5 -4 -10 4 -7 11 -10 6
-11 -20 -1 -27 -2 -30 -7 -13 -8 25 -22 18 -60 -31 -29 -38 -28 -62 6 -78 49
-24 34 -42 -40 -50 -84 -8 -126 -21 -203 -63 -33 -17 -96 -43 -140 -56 -44
-13 -92 -35 -109 -49 -25 -21 -49 -29 -118 -39 -184 -25 -297 -72 -354 -146
-42 -56 -25 -131 43 -189 41 -34 105 -59 114 -44 4 6 17 -11 28 -38 12 -27 33
-61 47 -75 24 -25 25 -29 11 -50 -21 -34 -36 -86 -40 -144 -3 -27 -16 -73 -31
-102 -15 -29 -30 -78 -34 -110 l-7 -58 -60 -1 c-39 -1 -60 -5 -59 -13 1 -6 2
-18 3 -26 1 -10 18 -15 62 -17 l60 -3 18 -53 c29 -85 128 -172 195 -172 14 0
36 -4 50 -10 43 -16 119 -18 164 -4 86 25 171 108 202 195 13 35 16 37 69 43
31 4 75 16 98 27 87 42 158 157 170 277 5 46 9 52 28 52 25 0 47 21 43 40 -5
23 55 32 232 35 96 2 218 10 270 18 52 9 97 13 100 10 7 -7 -32 -33 -41 -27
-5 3 -9 -1 -9 -9 0 -7 -19 -34 -41 -60 -34 -39 -48 -47 -78 -48 l-36 -2 35 -6
c28 -5 31 -8 17 -14 -10 -4 -35 -8 -55 -8 -20 -1 -50 -5 -67 -9 -18 -5 0 -6
43 -3 80 6 87 0 47 -43 -18 -19 -31 -25 -49 -22 -14 3 -29 2 -34 -1 -13 -8
-62 -101 -62 -117 0 -8 -10 -14 -22 -14 -12 0 -18 -3 -15 -7 4 -3 32 -5 63 -4
43 2 55 -1 52 -11 -3 -7 -11 -39 -18 -71 -11 -47 -11 -60 -1 -66 15 -9 92 3
122 20 15 8 24 8 32 0 24 -24 66 -12 117 36 27 25 52 55 56 65 3 10 15 19 27
19 16 1 17 3 5 6 -9 2 -19 11 -22 20 -6 16 11 180 20 195 6 10 52 9 79 -1 19
-8 19 -8 0 -19 -20 -11 -20 -12 1 -18 29 -8 121 -53 110 -54 -17 0 17 -30 35
-30 10 0 25 -13 34 -29 19 -38 75 -81 105 -81 13 0 31 7 41 15 14 13 15 23 7
58 -5 22 -14 47 -20 54 -8 10 -6 13 6 13 10 0 15 -3 13 -7 -3 -5 -1 -18 4 -31
9 -23 12 -23 75 -17 45 5 86 18 131 41 35 19 77 34 91 33 l27 0 -22 -16 c-31
-21 -29 -32 7 -47 30 -12 28 -13 -67 -31 -54 -10 -102 -22 -107 -27 -13 -11 9
-10 59 2 22 6 81 14 132 19 51 5 97 12 103 16 5 3 41 7 80 8 38 2 72 6 76 9
10 10 -5 28 -24 28 -15 0 -15 -2 -2 -10 11 -7 4 -9 -25 -8 -22 2 -62 -1 -90
-5 l-50 -7 55 24 c30 14 60 25 67 26 6 0 23 24 37 53 14 28 30 59 35 67 5 8
12 22 15 31 4 15 9 15 53 2 26 -9 64 -28 83 -43 37 -28 96 -61 105 -59 13 4
122 -24 136 -34 9 -7 25 -30 37 -53 11 -22 28 -46 36 -53 10 -9 16 -30 16 -58
0 -55 29 -88 88 -98 67 -11 78 10 42 80 -11 22 -20 41 -20 43 0 2 20 0 45 -4
25 -3 51 -4 60 -1 23 9 0 62 -42 94 -19 16 -52 44 -72 64 -20 20 -51 40 -68
44 -19 4 -42 19 -55 37 -52 68 -73 85 -118 92 -63 10 -146 40 -170 61 -11 10
-23 15 -26 12 -8 -8 13 -35 37 -47 24 -14 127 -41 167 -45 45 -5 53 -13 87
-95 17 -39 42 -84 56 -99 14 -16 29 -36 32 -45 4 -9 10 -16 15 -16 4 0 8 -10
9 -21 1 -12 13 -34 26 -48 14 -14 28 -36 31 -47 6 -21 6 -21 -31 -9 -27 10
-37 18 -35 31 3 13 -2 15 -17 11 -18 -4 -21 -1 -21 28 0 19 -4 37 -10 40 -5 3
-20 28 -34 54 -21 44 -46 78 -84 117 -7 8 -22 14 -32 14 -25 0 -50 10 -50 21
0 5 10 9 23 9 36 1 0 16 -58 25 -27 5 -57 10 -65 11 -8 2 -33 6 -55 9 -74 10
-114 25 -120 45 -7 23 -25 27 -25 6 0 -9 -7 -12 -20 -9 -11 3 -32 2 -47 -2
-22 -5 -24 -8 -12 -16 12 -9 12 -10 0 -7 -12 3 -14 25 -12 111 2 66 -1 107 -7
107 -6 0 -12 -3 -15 -7 -2 -5 -2 -2 -1 5 2 7 -8 12 -29 13 -27 0 -29 2 -12 9
41 17 -51 12 -249 -15 -29 -4 -37 -2 -33 8 2 7 -4 28 -14 47 -17 33 -23 29
-20 -15 2 -20 1 -20 -14 -1 -17 23 -20 14 -4 -15 5 -11 14 -17 20 -14 5 4 9 2
9 -3 0 -9 -32 -22 -57 -22 -9 0 -13 21 -13 70 0 50 -7 88 -25 136 -14 36 -25
70 -25 75 0 5 57 9 128 8 101 0 142 4 199 20 77 22 95 25 76 13 -9 -6 -7 -23
8 -72 11 -36 23 -93 26 -128 5 -50 9 -62 21 -57 12 4 13 3 2 -10 -15 -18 -7
-30 13 -22 11 4 13 17 10 51 -3 27 -1 51 6 60 8 10 7 19 -7 37 -26 33 -53 117
-41 125 32 19 159 -76 159 -120 0 -11 7 -30 15 -40 18 -24 20 -45 3 -28 -19
19 -26 14 -20 -13 3 -18 11 -25 26 -25 33 0 37 9 21 41 -27 52 -15 45 25 -16
21 -32 38 -60 37 -61 -1 -1 -31 4 -67 12 -36 7 -84 14 -108 14 -39 0 -42 -2
-32 -19 14 -27 13 -31 -7 -24 -16 6 -16 5 -4 -10 16 -21 38 -21 82 -3 27 11
30 15 13 19 -17 4 -16 5 4 6 12 0 22 -5 22 -11 0 -10 2 -10 8 -1 5 8 19 9 52
1 69 -16 92 -27 84 -39 -4 -7 -1 -10 7 -7 14 5 45 -50 34 -61 -3 -3 -8 4 -11
16 -3 12 -13 24 -21 27 -9 4 -11 2 -7 -6 5 -8 1 -9 -12 -4 -10 4 -47 13 -81
18 -34 6 -60 14 -58 18 4 6 -85 2 -93 -5 -1 -1 49 -12 110 -25 155 -32 179
-45 146 -78 -20 -20 5 -13 31 8 14 12 21 26 17 36 -3 8 1 28 9 44 10 19 11 30
4 32 -7 2 -4 16 8 38 11 19 22 46 26 60 3 14 26 45 50 68 39 39 54 46 118 58
100 19 259 19 285 -1 45 -34 113 2 130 70 11 44 8 47 -205 271 -37 38 -38 41
-20 52 10 7 19 18 18 25 0 9 -2 9 -6 0 -8 -21 -47 -15 -58 8 -6 11 -26 30 -45
41 l-35 20 33 -26 c36 -31 44 -56 10 -32 -25 18 -123 22 -133 6 -13 -21 -53
-9 -93 28 -23 22 -42 46 -42 55 0 9 -9 21 -21 27 -18 10 -89 15 -129 10 -8 -1
-37 1 -65 4 -66 9 -85 -3 -62 -38 9 -14 17 -28 17 -31 0 -4 -34 -5 -75 -3 -74
3 -97 -4 -52 -16 12 -3 39 -6 60 -6 21 0 37 -5 37 -11 0 -8 -21 -9 -72 -4 -89
10 -117 10 -129 -2 -4 -4 12 -6 37 -4 25 2 51 -2 57 -8 8 -8 -3 -11 -41 -11
-29 0 -52 -4 -52 -8 0 -5 -11 -14 -25 -20 -14 -6 -25 -16 -25 -22 0 -7 13 -4
30 7 28 16 31 16 47 0 14 -14 15 -17 3 -17 -34 0 -90 -22 -90 -35 0 -9 -6 -12
-15 -9 -9 4 -15 0 -15 -10 0 -10 8 -16 21 -16 18 0 20 -2 8 -16 -9 -11 -22
-14 -45 -10 -51 10 -54 -29 -4 -46 10 -4 6 -9 -15 -18 -19 -7 -114 -13 -260
-16 -256 -4 -269 -6 -340 -42 -44 -22 -58 -24 -130 -19 -47 3 -124 18 -185 36
-118 36 -220 51 -220 32 0 -17 -37 -13 -44 5 -9 22 -49 13 -61 -14 -8 -19 -15
-21 -40 -16 -70 15 -121 56 -114 90 5 23 -27 78 -55 95 l-31 19 49 -2 c39 -3
50 1 60 17 6 11 14 22 18 25 6 5 8 22 9 95 0 11 -8 25 -17 32 -12 9 -15 21
-11 42 5 25 3 31 -21 38 -17 6 -40 6 -59 0z m51 -24 c-5 -5 -12 -12 -16 -18
-4 -6 -8 -2 -8 8 0 9 7 17 17 17 9 0 12 -3 7 -7z m-74 -23 c0 -5 -2 -10 -4
-10 -3 0 -8 5 -11 10 -3 6 -1 10 4 10 6 0 11 -4 11 -10z m-60 -50 c-20 -13
-30 -12 -30 1 0 5 4 8 9 4 5 -3 13 0 16 6 4 5 10 8 13 4 4 -3 0 -10 -8 -15z
m130 16 c0 -7 -85 -46 -100 -46 -30 0 34 45 67 47 18 2 33 1 33 -1z m50 -37
c0 -16 -7 -19 -39 -19 -22 0 -46 -3 -55 -6 -9 -3 -16 -2 -16 4 0 11 91 51 103
45 4 -2 7 -13 7 -24z m1830 2 c6 -11 6 -22 1 -25 -5 -3 -11 5 -13 19 -6 30 -2
32 12 6z m-2016 -18 c4 -11 1 -11 -14 -3 -24 13 -25 17 -5 17 8 0 16 -6 19
-14z m2086 -13 c0 -5 -2 -10 -4 -10 -3 0 -8 5 -11 10 -3 6 -1 10 4 10 6 0 11
-4 11 -10z m40 -21 c0 -6 -4 -7 -10 -4 -5 3 -10 11 -10 16 0 6 5 7 10 4 6 -3
10 -11 10 -16z m-2050 1 c0 -5 -4 -10 -10 -10 -5 0 -10 5 -10 10 0 6 5 10 10
10 6 0 10 -4 10 -10z m60 -59 c0 -14 -16 -14 -41 -1 -21 12 -25 30 -8 47 9 9
17 6 30 -12 11 -13 19 -28 19 -34z m40 40 c0 -19 -20 -22 -36 -7 -14 15 -13
16 10 16 14 0 26 -4 26 -9z m2226 -15 c17 -13 15 -14 -19 -6 -47 10 -59 20
-26 20 14 0 34 -6 45 -14z m-293 -16 c3 -11 2 -20 -3 -20 -4 0 -10 9 -13 20
-3 11 -2 20 3 20 4 0 10 -9 13 -20z m187 -6 c0 -2 -7 -4 -15 -4 -8 0 -15 4
-15 10 0 5 7 7 15 4 8 -4 15 -8 15 -10z m98 -10 c17 -7 32 -11 32 -8 0 2 13
-2 30 -11 l29 -15 -27 -45 c-15 -24 -32 -45 -39 -45 -6 0 -27 19 -47 43 -20
23 -36 37 -36 30 0 -11 24 -35 125 -128 23 -21 31 -32 17 -25 -12 6 -51 38
-86 70 -35 33 -67 60 -72 60 -12 0 55 -67 108 -108 27 -20 50 -44 53 -53 3 -9
15 -19 25 -22 22 -6 28 -27 8 -27 -7 0 -26 7 -42 15 -15 8 -39 15 -52 15 -52
0 -111 81 -106 145 1 16 0 15 -10 -5 -45 -101 -57 -119 -48 -75 1 7 -2 7 -8 0
-13 -13 -26 -105 -15 -105 13 1 43 26 37 32 -6 7 19 88 28 88 3 0 9 -14 13
-30 4 -17 14 -38 23 -47 15 -15 15 -17 -8 -32 -37 -23 -110 -104 -110 -121 0
-5 -12 -16 -27 -24 -16 -8 -24 -15 -20 -16 4 0 -3 -15 -17 -33 -15 -19 -26
-41 -26 -50 0 -10 -5 -17 -11 -17 -5 0 -8 -4 -4 -9 6 -10 -21 -41 -35 -41 -18
0 -80 84 -75 101 4 12 -1 22 -14 29 -12 6 -39 34 -60 63 -22 29 -54 61 -71 72
-31 21 -41 39 -15 29 8 -4 35 -3 58 0 59 9 176 96 177 132 0 7 -17 -6 -39 -27
-26 -26 -48 -39 -66 -39 -20 0 -26 -4 -21 -16 9 -23 -57 -48 -103 -38 -20 4
-41 6 -48 5 -6 -1 -14 3 -17 8 -4 5 2 9 11 9 28 -2 90 21 105 39 11 15 11 16
-7 8 -11 -4 -46 -15 -77 -23 -37 -9 -55 -19 -52 -27 4 -9 -3 -11 -20 -8 -14 3
-23 9 -20 14 3 5 -3 9 -13 10 -10 0 8 7 40 15 67 16 97 30 97 46 0 6 -10 4
-24 -6 -28 -18 -117 -35 -101 -19 6 6 34 18 62 28 29 9 55 21 58 26 4 5 22 9
41 9 21 0 33 4 29 10 -4 6 8 10 27 10 19 0 43 7 54 16 19 15 19 16 -1 9 -43
-15 -92 -15 -135 -2 l-45 14 29 12 c37 15 131 26 101 12 -15 -7 -3 -10 47 -10
71 -1 101 6 93 20 -3 5 16 14 42 21 26 7 40 14 31 16 -29 6 -21 18 21 32 66
21 98 -6 41 -35 -40 -21 -38 -24 5 -11 19 6 35 17 35 23 0 7 12 13 26 13 24 0
23 -2 -18 -33 -53 -40 -88 -91 -88 -126 1 -22 3 -21 15 12 16 47 52 87 77 87
11 0 29 5 41 12 12 6 36 11 52 10 l30 -2 -29 19 c-16 11 -34 27 -39 36 -8 14
-6 16 14 10 13 -4 39 -13 57 -21z m-663 -2 c-3 -3 -11 0 -18 7 -9 10 -8 11 6
5 10 -3 15 -9 12 -12z m-1760 -2 c3 -5 1 -10 -4 -10 -6 0 -11 5 -11 10 0 6 2
10 4 10 3 0 8 -4 11 -10z m-95 -30 c-21 -14 -27 -12 -34 6 -5 14 -4 15 9 4 14
-12 20 -7 15 15 -1 6 4 4 12 -3 11 -11 10 -14 -2 -22z m140 16 c0 -3 -4 -8
-10 -11 -5 -3 -10 -1 -10 4 0 6 5 11 10 11 6 0 10 -2 10 -4z m-186 -21 c3 -8
1 -15 -4 -15 -6 0 -10 7 -10 15 0 8 2 15 4 15 2 0 6 -7 10 -15z m124 -26 c-3
-8 -7 -3 -11 10 -4 17 -3 21 5 13 5 -5 8 -16 6 -23z m-148 11 c0 -5 -4 -10
-10 -10 -5 0 -10 5 -10 10 0 6 5 10 10 10 6 0 10 -4 10 -10z m290 0 c0 -5 -6
-10 -14 -10 -8 0 -18 5 -21 10 -3 6 3 10 14 10 12 0 21 -4 21 -10z m1565 -5
c-16 -7 -32 -11 -35 -9 -7 8 24 24 45 23 15 0 13 -4 -10 -14z m818 -31 c-29
-51 -23 -64 30 -64 24 0 27 3 25 31 -2 26 -6 30 -25 26 -19 -3 -21 -1 -12 14
13 26 33 24 48 -4 7 -13 46 -57 87 -97 41 -41 77 -85 80 -97 6 -22 -12 -83
-24 -83 -12 0 -52 44 -52 56 0 8 -25 32 -55 54 -32 24 -53 46 -49 52 4 6 3 8
-4 4 -12 -7 -82 50 -82 68 0 11 47 86 55 86 2 0 -8 -21 -22 -46z m-2703 26 c0
-5 -5 -10 -11 -10 -5 0 -7 5 -4 10 3 6 8 10 11 10 2 0 4 -4 4 -10z m80 -10
c-23 -14 -5 -22 24 -10 15 5 35 10 44 9 9 0 -9 -10 -41 -21 -41 -14 -57 -24
-53 -34 3 -8 1 -14 -4 -14 -6 0 -10 5 -10 10 0 6 -10 10 -22 11 -18 1 -16 3
10 11 17 6 32 15 32 19 0 11 -3 11 -33 0 -14 -6 -28 -7 -32 -3 -3 4 15 14 42
23 48 16 70 16 43 -1z m2160 10 c0 -5 -12 -10 -27 -9 l-28 1 25 8 c14 4 26 8
28 9 1 1 2 -3 2 -9z m-2270 -10 c0 -5 -4 -10 -9 -10 -5 0 -18 -3 -28 -6 -16
-5 -16 -4 1 10 23 18 36 20 36 6z m223 -57 c-6 -2 -8 -15 -5 -28 2 -14 -1 -31
-7 -39 -12 -14 1 -23 34 -27 31 -3 49 -59 24 -74 -5 -4 -14 -18 -20 -32 -14
-37 -54 -29 -54 12 0 22 7 33 30 45 40 20 39 19 33 26 -9 8 -60 -21 -86 -49
-23 -24 -23 -26 -5 -36 24 -14 -2 -14 -28 -1 -44 24 -6 75 59 79 17 1 15 21
-3 21 -10 0 -15 10 -15 26 0 31 43 111 49 93 2 -7 -1 -15 -6 -16z m-83 12 c0
-2 -9 -9 -20 -15 -12 -6 -20 -7 -20 -1 0 5 8 12 18 14 9 3 18 5 20 6 1 0 2 -1
2 -4z m-120 -15 c0 -5 -12 -10 -27 -9 -25 0 -26 1 -8 9 27 12 35 12 35 0z
m1845 0 c-3 -5 -14 -10 -23 -9 -14 0 -13 2 3 9 27 11 27 11 20 0z m255 0 c-19
-13 -30 -13 -30 0 0 6 10 10 23 10 18 0 19 -2 7 -10z m-2157 -30 c3 -13 0 -20
-10 -20 -10 0 -12 -6 -8 -20 5 -14 2 -20 -9 -20 -19 0 -19 -1 -6 -34 5 -15 6
-26 1 -26 -16 0 -25 62 -11 70 7 4 9 13 6 19 -4 6 0 14 9 17 9 4 14 13 11 20
-3 8 -2 14 3 14 5 0 11 -9 14 -20z m427 0 c11 -11 20 -24 20 -30 0 -5 8 -10
18 -10 28 -1 64 -34 56 -53 -5 -15 -14 -16 -58 -11 -46 6 -104 39 -91 52 3 3
14 -3 26 -14 21 -19 21 -19 18 0 -4 19 -18 29 -53 40 -18 6 -17 8 4 26 29 25
35 25 60 0z m-470 0 c-8 -5 -22 -9 -30 -9 -10 0 -8 3 5 9 27 12 43 12 25 0z
m168 -8 c-10 -2 -18 -12 -18 -22 0 -11 -12 -22 -32 -29 -41 -15 -51 -4 -10 11
32 12 43 28 20 28 -7 0 -2 6 12 14 14 7 30 10 35 7 6 -3 2 -7 -7 -9z m-228
-12 c-23 -14 -6 -22 24 -11 17 7 26 7 26 1 0 -6 -7 -10 -15 -10 -8 0 -15 -4
-15 -10 0 -5 5 -10 11 -10 5 0 7 -5 4 -11 -5 -6 -11 -4 -19 7 -7 9 -18 14 -24
10 -7 -4 -12 -3 -12 3 0 5 -3 16 -6 24 -3 10 1 17 13 19 24 6 31 -1 13 -12z
m2145 10 c-3 -5 -12 -10 -18 -10 -7 0 -6 4 3 10 19 12 23 12 15 0z m-2215 -29
c0 -4 -16 -12 -35 -18 -19 -6 -35 -8 -35 -3 0 4 11 11 25 14 14 4 25 11 25 17
0 6 5 7 10 4 6 -3 10 -10 10 -14z m30 9 c0 -5 -4 -10 -10 -10 -5 0 -10 5 -10
10 0 6 5 10 10 10 6 0 10 -4 10 -10z m190 0 c0 -5 -4 -10 -9 -10 -5 0 -16 -3
-25 -6 -9 -3 -16 -1 -16 4 0 9 16 17 43 21 4 0 7 -3 7 -9z m590 6 c0 -2 -7 -7
-16 -10 -8 -3 -12 -2 -9 4 6 10 25 14 25 6z m1360 -6 c0 -5 -2 -10 -4 -10 -3
0 -8 5 -11 10 -3 6 -1 10 4 10 6 0 11 -4 11 -10z m-2260 -4 c0 -3 -4 -8 -10
-11 -5 -3 -10 -1 -10 4 0 6 5 11 10 11 6 0 10 -2 10 -4z m-30 -15 c0 -5 3 -16
6 -25 3 -9 1 -16 -5 -16 -6 0 -11 7 -11 16 0 10 -6 14 -15 11 -8 -4 -17 -2
-20 3 -3 5 3 11 12 13 29 8 33 7 33 -2z m-102 -25 c16 5 16 5 0 -6 -9 -6 -15
-17 -12 -25 4 -8 1 -15 -6 -15 -6 0 -9 4 -5 9 3 5 1 12 -5 16 -5 3 -10 16 -10
28 1 19 2 20 11 5 5 -10 17 -15 27 -12z m263 9 c1 -8 3 -18 4 -22 2 -5 6 -18
10 -30 4 -13 13 -19 21 -16 8 3 14 1 14 -4 0 -5 -9 -9 -19 -10 -15 -1 -23 10
-35 44 -19 55 -19 53 -6 53 6 0 11 -7 11 -15z m481 -17 c-15 -15 -26 -4 -18
18 5 13 9 15 18 6 9 -9 9 -15 0 -24z m337 23 c12 -8 12 -12 -2 -26 -10 -9 -17
-21 -17 -26 0 -5 -5 -9 -10 -9 -7 0 -7 6 0 19 13 25 13 31 0 31 -5 0 -10 -8
-10 -17 0 -15 -2 -15 -9 -4 -20 31 14 53 48 32z m179 -15 c53 -13 121 -27 149
-31 29 -4 55 -11 59 -16 16 -27 -232 9 -307 44 -48 22 -51 25 -26 26 16 1 72
-10 125 -23z m991 15 c8 -5 9 -11 3 -15 -5 -3 -15 1 -22 9 -14 16 -3 20 19 6z
m-2309 -11 c0 -5 -6 -9 -12 -7 -7 1 -12 -4 -10 -12 2 -8 -3 -18 -10 -22 -18
-12 -28 -11 -28 1 0 6 7 10 16 10 8 0 12 5 8 11 -3 6 0 15 7 20 19 12 29 11
29 -1z m200 -6 c0 -8 5 -12 11 -8 12 7 29 -13 29 -35 0 -17 -15 -5 -15 12 -1
7 -7 11 -15 9 -7 -2 -17 3 -21 10 -12 18 -11 28 1 28 6 0 10 -7 10 -16z m102
-34 c9 -27 13 -50 9 -50 -4 0 -14 23 -23 50 -9 28 -13 50 -9 50 4 0 14 -22 23
-50z m1752 34 c10 -25 -1 -29 -14 -5 -6 12 -7 21 -1 21 5 0 12 -7 15 -16z
m943 -16 c-3 -7 -5 -2 -5 12 0 14 2 19 5 13 2 -7 2 -19 0 -25z m-2734 5 c3
-10 14 -46 25 -80 11 -35 17 -63 13 -63 -4 0 -19 36 -33 80 -14 44 -23 80 -18
80 4 0 10 -8 13 -17z m97 13 c0 -3 -4 -8 -10 -11 -5 -3 -10 -1 -10 4 0 6 5 11
10 11 6 0 10 -2 10 -4z m90 -6 c0 -5 -4 -10 -10 -10 -5 0 -10 5 -10 10 0 6 5
10 10 10 6 0 10 -4 10 -10z m618 -3 c6 3 12 -2 12 -11 0 -12 -11 -16 -45 -16
-48 0 -48 0 -39 23 4 11 13 13 32 8 15 -5 33 -6 40 -4z m1017 3 c3 -5 1 -10
-4 -10 -6 0 -11 5 -11 10 0 6 2 10 4 10 3 0 8 -4 11 -10z m-1942 -20 c3 -13 0
-20 -10 -20 -10 0 -12 -6 -8 -20 3 -11 2 -20 -4 -20 -5 0 -16 -3 -25 -6 -9 -3
-16 -1 -16 5 0 6 7 11 16 11 10 0 14 5 10 15 -3 9 1 18 10 22 8 3 13 12 10 19
-3 8 -2 14 3 14 5 0 11 -9 14 -20z m377 10 c0 -5 -12 -10 -27 -9 -25 0 -26 1
-8 9 27 12 35 12 35 0z m675 0 c3 -5 -1 -10 -10 -10 -9 0 -13 5 -10 10 3 6 8
10 10 10 2 0 7 -4 10 -10z m-1271 -16 c8 -21 8 -24 -3 -24 -5 0 -11 9 -14 20
-6 24 8 27 17 4z m95 -15 c9 -27 13 -30 26 -19 9 7 15 8 15 2 0 -10 -23 -22
-41 -22 -5 0 -9 7 -9 15 0 8 -5 15 -11 15 -10 0 -8 -10 9 -60 3 -10 2 -12 -5
-5 -6 6 -14 25 -18 43 -5 26 -4 32 10 32 14 0 15 3 5 15 -7 9 -8 15 -2 15 5 0
15 -14 21 -31z m371 19 c0 -6 -3 -8 -7 -5 -3 4 -12 2 -20 -4 -8 -8 -13 -8 -13
-1 0 10 15 19 33 21 4 1 7 -4 7 -11z m450 -3 c10 -9 49 -17 103 -21 48 -4 90
-10 92 -14 5 -8 -44 -151 -63 -186 -14 -27 -51 -58 -58 -51 -11 11 17 95 37
113 24 22 24 46 0 69 -18 15 -28 16 -102 6 -61 -8 -89 -17 -106 -33 -20 -18
-23 -19 -23 -5 0 9 6 17 13 17 6 0 20 21 31 46 17 42 40 74 53 74 4 0 14 -7
23 -15z m1560 5 c0 -5 -7 -10 -15 -10 -8 0 -15 5 -15 10 0 6 7 10 15 10 8 0
15 -4 15 -10z m-2490 -67 c12 -38 23 -74 24 -81 1 -7 6 -12 12 -12 5 1 8 7 6
15 -1 7 12 18 29 24 39 13 39 13 39 2 0 -5 -14 -12 -30 -16 -20 -4 -28 -11
-23 -18 4 -7 8 -15 8 -19 0 -20 15 -17 15 3 1 21 2 20 15 -10 18 -40 18 -41 5
-41 -5 0 -10 7 -10 15 0 8 -6 12 -14 9 -7 -3 -16 2 -19 10 -4 9 -13 13 -21 10
-10 -4 -21 15 -40 75 -14 44 -26 85 -26 91 0 24 10 6 30 -57z m174 51 c8 -21
8 -24 -3 -24 -5 0 -11 9 -14 20 -6 24 8 27 17 4z m100 -6 c3 -13 6 -30 6 -38
-1 -12 -3 -12 -11 2 -5 10 -16 15 -24 12 -8 -4 -15 -1 -15 5 0 6 6 10 13 9 6
-2 11 5 11 15 -2 25 13 21 20 -5z m-314 -23 c0 -5 -5 -3 -10 5 -5 8 -10 20
-10 25 0 6 5 3 10 -5 5 -8 10 -19 10 -25z m356 -42 c-2 -3 -9 5 -16 16 -6 12
-8 21 -4 21 3 0 1 6 -5 13 -6 8 -8 17 -4 21 4 4 13 -10 20 -30 7 -21 11 -39 9
-41z m1129 50 c44 -8 82 -17 84 -19 5 -5 -100 -91 -166 -135 -13 -9 -45 -19
-69 -23 -34 -4 -54 -15 -80 -41 -18 -19 -38 -35 -44 -35 -5 0 -10 -7 -10 -15
0 -9 9 -15 24 -15 14 0 28 -4 31 -10 3 -5 15 -10 25 -10 11 0 20 -8 22 -22 2
-13 13 -24 28 -28 30 -8 127 14 150 35 8 7 22 15 30 17 14 3 32 25 75 91 9 15
13 27 8 27 -4 0 -17 -15 -26 -32 -40 -72 -149 -132 -226 -125 -47 4 -30 22 42
44 40 12 83 32 96 44 31 29 12 37 -33 15 -19 -9 -39 -16 -45 -16 -6 0 -11 -7
-11 -15 0 -18 -38 -28 -85 -22 -48 6 -54 15 -19 22 16 4 49 13 73 21 25 8 53
14 64 14 11 0 43 17 71 39 63 47 82 58 72 43 -11 -19 3 -14 37 12 36 27 124
59 138 51 5 -4 9 1 9 9 0 10 9 16 25 16 16 0 25 6 25 15 0 13 3 13 25 -1 22
-14 25 -22 20 -48 -4 -17 -12 -35 -18 -41 -7 -5 -25 -29 -41 -52 -30 -45 -39
-54 -30 -28 4 8 1 15 -5 15 -6 0 -11 8 -12 18 0 9 -7 -2 -16 -25 -8 -24 -19
-43 -24 -43 -6 0 -7 -5 -4 -10 3 -6 -1 -13 -9 -16 -9 -3 -14 -10 -11 -14 6 -9
-33 -45 -41 -38 -3 4 8 25 25 49 17 23 31 49 31 58 -1 9 -8 3 -17 -14 -9 -16
-19 -32 -22 -35 -3 -3 -21 -24 -39 -47 -35 -45 -30 -52 26 -32 17 6 40 25 52
42 l21 32 -7 -37 c-6 -36 -5 -38 22 -38 15 0 25 -3 21 -6 -6 -7 -199 -33 -242
-33 -28 0 -29 0 -9 12 36 21 74 54 74 65 0 6 18 32 40 57 22 25 40 54 40 63 0
10 -8 3 -21 -18 -12 -19 -45 -62 -75 -96 -66 -76 -134 -104 -252 -107 -42 -1
-80 -6 -84 -11 -3 -5 -20 -3 -40 5 l-33 14 55 8 c30 4 85 8 122 7 36 0 69 3
72 9 3 5 -4 9 -17 9 -58 2 -112 25 -101 44 4 6 3 8 -4 4 -6 -3 -17 1 -25 9
-18 17 -37 20 -37 5 0 -5 -12 -10 -27 -11 -16 0 -22 -3 -15 -6 6 -2 10 -8 7
-12 -2 -5 9 -8 26 -9 48 -1 45 -9 -13 -27 -29 -10 -60 -24 -69 -31 -30 -26
-78 -37 -96 -23 -15 12 -16 12 -10 -3 4 -11 2 -18 -6 -18 -32 1 -33 16 -9 95
21 73 27 83 62 103 29 16 47 39 70 84 29 59 31 60 26 26 -3 -26 0 -43 10 -53
18 -18 20 -18 45 -5 16 9 19 22 19 97 0 76 3 89 23 109 20 21 29 23 87 18 36
-2 101 -12 145 -21z m1888 5 c20 -7 37 -15 37 -18 0 -8 -143 -40 -179 -40 -18
0 -39 -7 -47 -15 -16 -16 -44 -20 -44 -7 0 9 55 62 86 83 25 16 93 15 147 -3z
m107 -27 c34 -40 37 -51 15 -51 -8 0 -26 18 -40 40 -14 22 -30 40 -35 40 -6 0
-10 4 -10 9 0 19 42 -3 70 -38z m-2850 35 c0 -3 -4 -8 -10 -11 -5 -3 -10 -1
-10 4 0 6 5 11 10 11 6 0 10 -2 10 -4z m-542 -24 c-10 -2 -18 -13 -19 -25 0
-21 -1 -21 -9 -2 -5 11 -9 23 -9 27 -1 9 32 16 44 9 6 -3 2 -7 -7 -9z m452 -3
c0 -5 -4 -9 -10 -9 -5 0 -10 7 -10 16 0 8 5 12 10 9 6 -3 10 -10 10 -16z
m1633 4 c-7 -2 -19 -2 -25 0 -7 3 -2 5 12 5 14 0 19 -2 13 -5z m-2223 -13 c0
-5 -4 -10 -10 -10 -5 0 -10 5 -10 10 0 6 5 10 10 10 6 0 10 -4 10 -10z m77
-65 c12 -36 18 -65 13 -65 -4 0 -11 11 -14 25 -4 14 -13 25 -21 25 -8 0 -19 9
-25 20 -13 25 -2 26 17 3 14 -17 14 -17 10 2 -3 11 -8 28 -12 38 -4 9 -3 17 2
17 5 0 18 -29 30 -65z m173 55 c0 -5 -5 -10 -11 -10 -5 0 -7 5 -4 10 3 6 8 10
11 10 2 0 4 -4 4 -10z m110 -32 c0 -4 -4 -8 -10 -8 -5 0 -10 4 -10 9 0 5 -3
18 -6 28 -5 16 -4 16 10 -1 9 -11 16 -23 16 -28z m99 -30 c1 -5 -3 -8 -7 -8
-11 0 -32 67 -24 75 6 5 29 -46 31 -67z m171 62 c0 -5 -4 -10 -10 -10 -5 0
-10 5 -10 10 0 6 5 10 10 10 6 0 10 -4 10 -10z m1472 -55 c-1 -33 -7 -90 -13
-126 l-10 -65 -32 3 c-71 8 -159 24 -183 33 -19 8 -22 13 -14 22 6 7 24 38 39
68 23 48 31 55 62 60 40 7 59 17 59 31 0 6 -8 5 -21 -1 -22 -13 -35 -8 -25 9
10 15 65 30 106 28 l35 -2 -3 -60z m73 9 c45 -102 66 -218 41 -227 -9 -4 -15
-1 -13 6 1 7 -11 13 -28 15 l-30 3 0 129 c0 72 1 130 3 130 1 0 13 -25 27 -56z
m-2145 36 c0 -5 -2 -10 -4 -10 -3 0 -8 5 -11 10 -3 6 -1 10 4 10 6 0 11 -4 11
-10z m190 1 c0 -5 3 -18 6 -28 5 -16 4 -16 -10 1 -18 23 -20 36 -6 36 6 0 10
-4 10 -9z m100 -1 c0 -5 -4 -10 -10 -10 -5 0 -10 5 -10 10 0 6 5 10 10 10 6 0
10 -4 10 -10z m3160 0 c0 -5 -21 -9 -47 -9 -47 2 -47 2 -13 9 52 11 60 11 60
0z m-3190 -10 c0 -5 -4 -10 -10 -10 -5 0 -10 5 -10 10 0 6 5 10 10 10 6 0 10
-4 10 -10z m280 0 c0 -5 -5 -10 -11 -10 -5 0 -7 5 -4 10 3 6 8 10 11 10 2 0 4
-4 4 -10z m95 1 c3 -5 1 -12 -5 -16 -5 -3 -10 1 -10 9 0 18 6 21 15 7z m591
-127 c-3 -8 -10 -14 -15 -14 -19 0 -20 33 -3 93 l17 62 3 -64 c2 -35 1 -70 -2
-77z m-996 116 c0 -5 -4 -10 -10 -10 -5 0 -10 5 -10 10 0 6 5 10 10 10 6 0 10
-4 10 -10z m380 0 c0 -5 -4 -10 -10 -10 -5 0 -10 5 -10 10 0 6 5 10 10 10 6 0
10 -4 10 -10z m1100 0 c0 -5 -2 -10 -4 -10 -3 0 -8 5 -11 10 -3 6 -1 10 4 10
6 0 11 -4 11 -10z m495 -95 c3 -18 -3 -9 -15 20 -27 68 -34 100 -11 50 11 -22
22 -53 26 -70z m-1905 79 c0 -10 6 -14 15 -11 8 4 17 2 21 -4 10 -17 16 -70 7
-68 -20 3 -25 -2 -13 -16 7 -9 8 -15 2 -15 -5 0 -12 7 -16 15 -3 8 -13 13 -23
10 -10 -3 -4 1 14 10 24 11 30 19 26 35 -4 15 -11 20 -24 17 -11 -3 -19 -1
-19 3 0 5 -3 15 -6 24 -3 9 -1 16 5 16 6 0 11 -7 11 -16z m283 -6 c6 -21 2
-36 -7 -27 -10 11 -16 49 -8 49 5 0 12 -10 15 -22z m502 5 c15 -14 15 -18 3
-27 -20 -15 -38 -51 -38 -76 0 -12 -6 -36 -14 -53 -19 -43 -41 -119 -56 -195
-7 -34 -17 -65 -21 -68 -5 -3 -9 -15 -9 -28 0 -47 -51 -201 -73 -218 -12 -9
-25 -14 -29 -12 -4 3 -8 0 -8 -6 0 -14 -61 -40 -95 -40 -14 0 -25 -5 -25 -10
0 -14 63 -3 119 21 44 19 44 19 27 0 -22 -24 -97 -51 -143 -51 -34 0 -41 8
-22 27 7 7 8 17 1 29 -5 11 -15 43 -22 71 -6 29 -21 64 -32 78 -11 14 -16 25
-13 25 24 0 -108 91 -137 94 -3 1 -9 4 -13 8 -4 4 -13 4 -20 2 -19 -8 -30 17
-13 30 15 12 32 46 29 59 0 4 5 10 13 13 8 3 13 11 10 18 -3 7 4 33 15 58 28
66 17 74 -71 49 -27 -8 -48 -18 -48 -24 0 -6 -2 -8 -5 -5 -3 2 -26 -15 -52
-39 -26 -23 -51 -43 -55 -43 -5 0 -8 -5 -8 -11 0 -6 -13 -29 -28 -52 -35 -52
-52 -92 -52 -120 0 -27 -39 -81 -40 -56 0 9 7 20 16 23 9 3 14 13 10 21 -3 8
0 29 6 47 15 44 95 168 108 168 5 0 10 6 10 13 0 8 11 20 25 27 14 7 25 17 25
21 0 12 44 33 123 59 52 18 65 26 57 36 -15 17 3 21 125 29 109 7 205 22 205
34 0 4 13 22 29 41 25 30 36 35 87 41 33 3 64 7 71 8 6 0 19 -7 28 -16z m-815
-3 c0 -5 -4 -10 -9 -10 -5 0 -16 -3 -25 -6 -9 -3 -16 -1 -16 4 0 9 16 17 43
21 4 0 7 -3 7 -9z m1829 -64 c-4 -4 -5 -24 -2 -42 3 -19 1 -34 -4 -34 -5 0
-10 18 -11 40 -1 22 2 40 6 40 4 0 7 17 6 38 l-3 37 8 -35 c4 -19 4 -39 0 -44z
m-1479 43 c0 -6 -4 -7 -10 -4 -5 3 -10 11 -10 16 0 6 5 7 10 4 6 -3 10 -11 10
-16z m-410 1 c0 -5 -7 -10 -16 -10 -8 0 -13 -4 -9 -10 4 -6 15 -6 31 0 35 14
42 12 20 -5 -28 -21 -63 -19 -69 4 -3 13 1 21 12 24 27 8 31 7 31 -3z m73 -20
c3 -13 -1 -24 -13 -30 -24 -13 -30 -13 -30 0 0 6 7 10 16 10 11 0 14 6 9 20
-3 11 -2 20 3 20 5 0 12 -9 15 -20z m298 -5 c10 4 19 2 19 -4 0 -5 -14 -12
-31 -16 -20 -5 -29 -11 -25 -21 3 -8 1 -14 -4 -14 -6 0 -10 9 -10 20 0 11 5
20 10 20 6 0 11 10 11 23 1 17 2 18 6 4 3 -12 10 -16 24 -12z m-261 1 c0 -3
-4 -8 -10 -11 -5 -3 -10 -1 -10 4 0 6 5 11 10 11 6 0 10 -2 10 -4z m298 -26
c-8 -12 -23 -20 -38 -19 -24 0 -24 1 -4 9 12 5 25 13 29 19 3 6 10 11 16 11 5
0 4 -9 -3 -20z m-203 1 c3 -5 1 -12 -5 -16 -5 -3 -10 1 -10 9 0 18 6 21 15 7z
m35 5 c0 -3 -4 -8 -10 -11 -5 -3 -10 -1 -10 4 0 6 5 11 10 11 6 0 10 -2 10 -4z
m-345 -16 c3 -5 1 -10 -4 -10 -6 0 -11 5 -11 10 0 6 2 10 4 10 3 0 8 -4 11
-10z m114 -1 c-18 -11 -39 -11 -39 0 0 5 12 9 26 9 18 0 22 -3 13 -9z m-144
-9 c3 -5 1 -10 -4 -10 -6 0 -11 5 -11 10 0 6 2 10 4 10 3 0 8 -4 11 -10z
m2805 -10 c0 -5 -2 -10 -4 -10 -3 0 -8 5 -11 10 -3 6 -1 10 4 10 6 0 11 -4 11
-10z m-2780 -20 c-8 -5 -18 -6 -24 -3 -5 4 -1 10 10 13 24 9 34 2 14 -10z m40
9 c0 -6 9 -8 20 -4 15 5 20 2 20 -10 0 -12 6 -16 20 -12 11 3 20 2 20 -2 0 -4
-29 -16 -65 -28 -36 -12 -65 -17 -65 -12 0 4 18 14 40 20 22 7 40 16 40 21 0
5 -8 7 -19 3 -13 -4 -20 0 -24 15 -3 11 -1 20 4 20 5 0 9 -5 9 -11z m65 1 c3
-5 1 -10 -4 -10 -6 0 -11 5 -11 10 0 6 2 10 4 10 3 0 8 -4 11 -10z m95 1 c0
-5 -14 -14 -31 -20 -42 -15 -47 -14 -24 3 11 8 23 12 27 10 4 -2 9 0 13 6 8
12 15 13 15 1z m220 -1 c0 -5 -8 -10 -17 -10 -15 0 -16 2 -3 10 19 12 20 12
20 0z m-93 -22 c-3 -8 -6 -5 -6 6 -1 11 2 17 5 13 3 -3 4 -12 1 -19z m36 2 c3
-11 1 -18 -4 -14 -5 3 -9 12 -9 20 0 20 7 17 13 -6z m-123 0 c0 -5 -5 -10 -11
-10 -5 0 -7 5 -4 10 3 6 8 10 11 10 2 0 4 -4 4 -10z m-220 -9 c0 -5 -9 -11
-20 -14 -11 -3 -20 -1 -20 3 0 5 8 11 18 13 9 3 18 5 20 6 1 0 2 -3 2 -8z
m165 -11 c3 -5 1 -10 -4 -10 -6 0 -11 5 -11 10 0 6 2 10 4 10 3 0 8 -4 11 -10z
m1807 -26 c-4 -23 -6 -24 -15 -9 -8 14 2 32 19 35 1 0 -1 -12 -4 -26z m127
-24 c0 -9 -4 -8 -9 5 -5 11 -9 27 -9 35 0 9 4 8 9 -5 5 -11 9 -27 9 -35z
m-1983 33 c-3 -4 -22 -12 -41 -19 -41 -14 -48 0 -7 14 32 12 58 15 48 5z m4
-27 c0 -3 -4 -8 -10 -11 -5 -3 -10 -1 -10 4 0 6 5 11 10 11 6 0 10 -2 10 -4z
m1566 -22 c-3 -9 -6 -25 -7 -37 0 -21 -1 -21 -8 -2 -9 23 -3 55 11 55 6 0 7
-7 4 -16z m80 5 c24 -6 44 -14 44 -18 -1 -18 -20 -30 -62 -36 l-48 -7 0 36 c0
40 2 41 66 25z m684 1 c0 -5 -2 -10 -4 -10 -3 0 -8 5 -11 10 -3 6 -1 10 4 10
6 0 11 -4 11 -10z m-465 -10 c3 -5 1 -10 -4 -10 -6 0 -11 5 -11 10 0 6 2 10 4
10 3 0 8 -4 11 -10z m433 5 c-3 -3 -27 -8 -54 -11 -36 -4 -45 -2 -34 5 15 11
98 16 88 6z m-2401 -11 c-3 -3 -12 -4 -19 -1 -8 3 -5 6 6 6 11 1 17 -2 13 -5z
m1893 -15 c10 -5 -2 -8 -32 -9 -38 0 -46 3 -42 15 6 15 41 12 74 -6z m360 9
c0 -6 -3 -8 -7 -5 -3 4 -11 3 -17 -2 -19 -15 -116 -24 -116 -11 0 6 5 10 12 8
6 -2 35 1 62 8 66 16 66 16 66 2z m35 2 c3 -5 2 -10 -4 -10 -5 0 -13 5 -16 10
-3 6 -2 10 4 10 5 0 13 -4 16 -10z m568 4 c7 -7 -2 -34 -12 -34 -4 0 -7 9 -7
20 0 20 7 25 19 14z m-2493 -14 c0 -5 -6 -9 -12 -7 -8 1 -12 -7 -10 -22 2 -13
-1 -21 -6 -17 -11 7 -11 24 1 44 10 14 27 16 27 2z m2130 -35 c0 -41 -9 -44
-37 -12 -37 41 -37 47 1 47 34 0 36 -2 36 -35z m-1367 18 c-7 -2 -19 -2 -25 0
-7 3 -2 5 12 5 14 0 19 -2 13 -5z m907 -5 c0 -4 -17 -8 -37 -7 -26 0 -32 3
-20 8 24 9 57 9 57 -1z m368 -33 c17 -25 37 -45 43 -45 6 0 -3 16 -20 35 -29
34 -39 55 -24 55 3 0 23 -19 45 -42 28 -30 38 -50 38 -74 0 -18 -3 -35 -7 -37
-22 -13 -206 40 -215 62 -1 4 -38 15 -80 22 -43 8 -78 18 -78 24 -1 5 37 15
82 22 73 10 84 10 95 -4 6 -8 17 -12 23 -8 6 4 22 -1 36 -10 35 -23 49 -15 23
13 -11 13 -28 21 -36 18 -8 -3 -11 -1 -8 4 15 25 52 9 83 -35z m116 -44 c-4
-25 -11 -55 -15 -66 -6 -14 -7 -9 -3 15 4 19 6 59 6 90 0 44 2 50 9 31 6 -14
7 -45 3 -70z m-579 70 c-39 -16 -125 -24 -125 -11 0 6 4 9 9 6 5 -4 19 -2 32
2 31 12 112 14 84 3z m-1611 -33 c6 -4 7 -10 3 -15 -10 -9 -27 16 -26 37 1 13
1 13 6 0 3 -8 11 -18 17 -22z m1460 12 c-34 -13 -124 -22 -124 -13 0 5 8 9 18
10 9 0 37 5 62 10 47 10 77 5 44 -7z m256 -5 c0 -8 -5 -15 -11 -15 -5 0 -8 4
-5 9 4 5 0 12 -6 14 -8 3 -6 6 5 6 9 1 17 -6 17 -14z m-40 -5 c0 -21 -29 -65
-60 -95 l-33 -30 19 30 18 30 -33 -30 c-33 -30 -33 -30 -26 -5 6 23 4 22 -25
-10 -22 -24 -33 -31 -37 -22 -4 10 -13 6 -35 -15 -19 -18 -27 -22 -23 -10 10
23 -7 22 -23 -3 -6 -11 -18 -17 -26 -14 -8 3 -17 0 -21 -5 -3 -6 -11 -9 -16
-5 -11 7 -69 -17 -69 -29 0 -5 -5 -5 -10 -2 -6 4 -10 3 -9 -2 3 -19 -2 -34
-10 -29 -5 4 -26 -29 -46 -71 -20 -43 -48 -92 -61 -110 -13 -17 -24 -36 -24
-42 0 -6 -4 -11 -9 -11 -5 0 -11 -13 -14 -30 -8 -38 -46 -62 -109 -68 -43 -4
-50 -2 -45 11 3 8 11 33 18 55 11 40 14 41 58 44 39 3 46 6 49 26 2 13 16 29
34 38 16 8 27 18 24 21 -2 3 8 28 24 57 16 28 36 76 44 106 20 68 21 69 78
108 26 18 50 41 53 52 8 24 14 26 185 49 169 24 160 23 160 11z m-1743 -32
c-3 -7 -5 -2 -5 12 0 14 2 19 5 13 2 -7 2 -19 0 -25z m1353 23 c0 -4 -6 -8
-12 -9 -7 0 -31 -3 -53 -6 l-40 -6 34 13 c39 15 71 19 71 8z m-1301 -45 c-11
-12 -14 -8 -24 24 l-7 25 20 -20 c11 -12 16 -24 11 -29z m1151 25 c0 -4 -17
-11 -37 -15 -55 -9 -75 -7 -68 4 4 6 10 8 15 5 4 -3 19 -1 32 4 30 12 58 13
58 2z m-1392 -13 c12 -12 0 -45 -26 -64 -7 -5 -13 -17 -12 -25 6 -38 0 -58
-16 -52 -10 4 -14 13 -9 27 3 11 7 31 9 44 2 13 8 28 15 35 17 17 13 27 -6 20
-16 -6 -16 -5 -4 10 16 20 32 22 49 5z m1242 -9 c0 -5 -11 -9 -24 -9 -13 0
-39 -3 -57 -6 -19 -4 -30 -3 -26 2 4 4 20 10 35 12 15 2 28 4 29 5 7 8 43 4
43 -4z m330 3 c0 -13 -12 -22 -22 -16 -10 6 -1 24 13 24 5 0 9 -4 9 -8z m-485
-12 c8 -13 -5 -13 -25 0 -13 8 -13 10 2 10 9 0 20 -4 23 -10z m1118 -15 c23
-10 40 -42 30 -58 -4 -6 -6 -20 -5 -29 2 -10 2 -18 0 -19 -2 0 -37 -6 -78 -14
l-75 -14 80 6 c85 6 96 -2 24 -16 l-44 -9 45 -1 c38 -1 42 -3 30 -15 -23 -21
-128 -57 -135 -46 -9 15 -74 40 -99 39 -15 -1 -13 -3 9 -8 l30 -8 -25 -10
c-88 -37 -95 -37 -157 4 -59 39 -83 58 -83 67 0 2 17 10 38 17 54 17 88 44
114 91 l23 40 130 -5 c72 -2 138 -8 148 -12z m-2093 -28 c0 -7 -6 -20 -12 -29
-19 -22 -78 -61 -85 -55 -3 3 5 26 17 51 18 39 26 46 51 46 17 0 29 -5 29 -13z
m740 -31 c0 -11 -19 -15 -25 -6 -3 5 1 10 9 10 9 0 16 -2 16 -4z m-933 -38
c-3 -7 -5 -2 -5 12 0 14 2 19 5 13 2 -7 2 -19 0 -25z m417 -2 c87 -51 141
-161 132 -269 -3 -34 -11 -78 -17 -97 -21 -61 -76 -134 -129 -169 -42 -28 -61
-35 -110 -37 -82 -3 -126 13 -180 66 -69 69 -84 107 -85 220 0 78 4 103 23
142 40 85 111 147 192 170 46 13 129 0 174 -26z m2114 15 c25 -22 30 -69 6
-78 -8 -3 -13 -11 -10 -18 6 -17 -45 -27 -62 -13 -7 6 -27 8 -45 5 l-32 -5 0
52 c1 28 4 57 8 64 13 20 108 15 135 -7z m-1674 -69 c-4 -23 -10 -39 -15 -36
-12 7 -11 44 1 44 6 0 10 10 10 22 0 12 2 19 5 16 3 -3 3 -24 -1 -46z m651
-31 c-15 -44 -62 -121 -82 -136 -8 -6 -19 -21 -26 -35 -14 -27 -34 -35 -56
-21 -11 7 -10 13 5 34 11 14 26 28 35 30 9 3 42 41 74 86 31 44 58 81 60 81 2
0 -2 -17 -10 -39z m1378 22 c-7 -2 -21 -2 -30 0 -10 3 -4 5 12 5 17 0 24 -2
18 -5z m-2051 -68 c-2 -14 -8 -25 -12 -25 -4 0 -5 11 -2 25 2 14 8 25 12 25 4
0 5 -11 2 -25z m1005 19 c-3 -3 -12 -4 -19 -1 -8 3 -5 6 6 6 11 1 17 -2 13 -5z
m183 -28 c0 -3 -4 -8 -10 -11 -5 -3 -10 -1 -10 4 0 6 5 11 10 11 6 0 10 -2 10
-4z m-2028 -38 c-7 -7 -12 -8 -12 -2 0 6 3 14 7 17 3 4 9 5 12 2 2 -3 -1 -11
-7 -17z m1328 -2 c0 -2 -9 -6 -20 -9 -11 -3 -20 -1 -20 4 0 5 9 9 20 9 11 0
20 -2 20 -4z m-1313 -28 c-3 -8 -6 -5 -6 6 -1 11 2 17 5 13 3 -3 4 -12 1 -19z
m-24 -25 c-8 -52 -13 -54 -13 -5 0 23 4 42 9 42 6 0 7 -17 4 -37z m798 4 c-13
-12 -20 -15 -16 -7 14 26 28 41 33 35 3 -3 -5 -16 -17 -28z m2529 2 c0 -11
-47 -12 -53 -1 -3 4 8 7 24 8 16 1 29 -3 29 -7z m-3313 -81 c-2 -13 -4 -5 -4
17 -1 22 1 32 4 23 2 -10 2 -28 0 -40z m743 32 c-24 -15 -36 -11 -14 4 10 8
21 12 24 10 2 -3 -2 -9 -10 -14z m780 10 c0 -5 -4 -10 -10 -10 -5 0 -10 5 -10
10 0 6 5 10 10 10 6 0 10 -4 10 -10z m520 0 c0 -5 -7 -10 -16 -10 -8 0 -12 5
-9 10 3 6 10 10 16 10 5 0 9 -4 9 -10z m-493 -26 c-3 -3 -12 -4 -19 -1 -8 3
-5 6 6 6 11 1 17 -2 13 -5z m-897 -13 c0 -5 -9 -11 -20 -14 -22 -6 -28 8 -7
16 19 8 27 8 27 -2z m-791 -5 c-12 -10 -59 -15 -59 -6 0 5 14 10 32 10 17 0
29 -2 27 -4z m43 -8 c-9 -9 -15 -9 -24 0 -9 9 -7 12 12 12 19 0 21 -3 12 -12z
m87 -47 c6 -27 6 -40 0 -34 -10 10 -26 92 -16 83 3 -3 10 -25 16 -49z m1521 5
c0 -9 -40 -13 -46 -5 -3 5 6 9 20 9 14 0 26 -2 26 -4z m1725 -16 c7 -12 -12
-12 -40 0 -18 8 -17 9 7 9 15 1 30 -3 33 -9z m-3140 -168 c-2 -2 -16 3 -32 12
-15 8 -24 15 -18 16 5 0 -1 7 -13 16 -12 8 -20 20 -16 25 3 5 23 -7 44 -28 21
-21 37 -39 35 -41z"/>
<path d="M4179 2847 c-52 -22 -112 -57 -97 -57 4 0 34 13 66 30 32 16 76 34
98 39 28 6 32 9 14 10 -14 0 -50 -10 -81 -22z"/>
<path d="M4307 2829 c-10 -18 -21 -27 -28 -23 -8 4 -9 3 -5 -4 7 -13 -40 -61
-60 -62 -6 0 -17 -7 -24 -15 -11 -13 -8 -13 21 -3 19 6 40 20 47 30 17 23 36
24 28 1 -5 -15 -3 -14 9 2 15 19 40 94 33 100 -2 2 -11 -10 -21 -26z"/>
<path d="M4377 2763 c-4 -3 -7 -15 -7 -25 0 -10 -7 -21 -15 -24 -8 -3 -17 -26
-21 -52 -5 -26 -10 -39 -12 -29 -4 20 -22 13 -22 -10 0 -9 -6 -21 -14 -27 -17
-14 -30 -66 -16 -66 5 0 10 9 10 20 0 11 7 20 15 20 8 0 15 5 15 10 0 6 7 10
15 10 9 0 15 9 15 21 0 15 5 19 15 15 11 -4 15 2 16 22 1 28 2 38 14 91 7 31
4 37 -8 24z"/>
<path d="M4706 2787 c3 -10 9 -15 12 -12 3 3 0 11 -7 18 -10 9 -11 8 -5 -6z"/>
<path d="M4766 2757 c3 -10 9 -15 12 -12 3 3 0 11 -7 18 -10 9 -11 8 -5 -6z"/>
<path d="M3060 2499 c-7 -11 -10 -23 -7 -25 2 -2 9 7 15 21 14 30 7 33 -8 4z"/>
<path d="M2830 2495 c-7 -9 -11 -18 -8 -20 3 -3 11 1 18 10 7 9 11 18 8 20 -3
3 -11 -1 -18 -10z"/>
<path d="M3240 2525 c-12 -13 -24 -35 -25 -49 -2 -14 -6 -30 -10 -35 -3 -6 2
-11 13 -11 17 0 33 19 36 42 1 3 4 10 9 14 15 15 6 24 -13 14 -19 -10 -20 -10
-8 9 6 11 21 24 33 30 15 7 16 10 4 10 -8 1 -26 -10 -39 -24z"/>
<path d="M2267 2554 c-2 -2 -12 -5 -24 -7 -11 -1 -35 -17 -53 -35 -17 -18 -35
-30 -40 -27 -5 3 -12 0 -16 -6 -4 -8 -9 -7 -15 2 -6 9 -9 10 -9 2 0 -6 -8 -12
-17 -11 -62 1 -210 -20 -217 -31 -8 -12 214 1 287 18 21 5 47 20 58 35 16 20
29 26 60 26 26 0 39 4 39 14 0 12 -44 29 -53 20z"/>
<path d="M2203 2459 c-23 -11 -42 -24 -41 -27 4 -16 -38 -72 -54 -72 -9 0 -20
-5 -23 -10 -4 -6 -11 -7 -17 -4 -6 4 -8 2 -5 -3 4 -6 -12 -15 -39 -22 -56 -14
-110 -50 -148 -97 -21 -26 -25 -39 -17 -47 8 -8 11 -7 11 4 0 8 16 32 37 52
27 28 38 35 44 25 5 -7 6 -21 3 -30 -4 -13 0 -15 16 -11 12 3 19 11 16 18 -3
8 6 16 22 21 26 7 25 8 -13 14 -39 5 -40 6 -16 19 13 7 39 13 57 13 24 0 38 6
45 19 5 10 18 19 29 19 10 0 27 13 37 30 9 17 21 30 25 30 4 0 8 6 8 14 0 19
44 46 75 46 14 0 25 5 25 10 0 16 -32 12 -77 -11z"/>
<path d="M2223 2429 c-22 -6 -34 -18 -42 -39 -5 -17 -14 -30 -18 -30 -5 0 -14
-10 -22 -21 -10 -18 -10 -23 0 -30 19 -11 -4 -35 -47 -49 -37 -13 -43 -24 -18
-38 14 -8 11 -11 -15 -20 -17 -6 -31 -18 -31 -26 0 -8 -9 -31 -21 -50 -15 -26
-19 -44 -14 -66 8 -39 26 -40 19 -1 -9 42 32 121 68 133 30 11 35 27 17 45 -9
9 -3 13 24 18 27 5 37 13 42 33 3 14 2 28 -4 31 -6 4 2 20 19 38 16 17 26 33
24 36 -3 3 8 13 25 22 17 8 31 18 31 20 0 3 -1 5 -2 4 -2 0 -17 -5 -35 -10z"/>
<path d="M1925 2390 c-28 -16 -57 -30 -66 -30 -18 0 -49 -31 -49 -49 0 -7 -9
-33 -21 -58 -11 -25 -17 -48 -13 -51 4 -4 9 -2 11 5 2 7 10 10 16 7 12 -4 93
83 85 92 -3 2 -22 -12 -43 -33 -28 -27 -36 -31 -31 -15 4 11 9 31 11 43 5 25
22 39 40 33 7 -3 15 2 18 10 6 15 77 56 97 56 5 0 10 -4 10 -10 0 -5 -7 -10
-16 -10 -10 0 -14 -6 -11 -14 4 -10 -6 -17 -31 -24 -29 -8 -32 -10 -12 -11 41
-1 72 10 66 25 -4 10 7 16 34 20 22 4 40 11 40 16 0 13 -43 27 -56 17 -6 -5
-15 -4 -20 1 -6 6 -28 -2 -59 -20z m112 4 c-3 -3 -12 -4 -19 -1 -8 3 -5 6 6 6
11 1 17 -2 13 -5z"/>
<path d="M2226 2376 c-7 -30 -16 -135 -10 -111 4 11 13 28 22 38 12 13 13 20
4 29 -13 13 -17 42 -4 35 4 -3 12 1 19 8 9 10 8 14 -7 18 -13 3 -20 -2 -24
-17z"/>
<path d="M2192 2187 c-7 -23 -16 -48 -19 -56 -3 -8 -1 -11 4 -8 11 7 38 95 31
102 -2 2 -10 -15 -16 -38z"/>
<path d="M1929 2187 c-38 -17 -60 -38 -53 -49 4 -7 9 -7 13 0 3 6 23 13 43 17
l37 7 -2 -75 c-2 -59 2 -79 16 -94 9 -11 14 -23 10 -26 -3 -4 2 -16 12 -27 31
-35 154 -20 125 15 -9 11 -6 16 10 25 12 6 19 14 17 17 -3 2 -16 -1 -29 -8
-36 -20 -68 -22 -68 -5 0 12 -7 14 -30 10 -26 -6 -31 -3 -41 22 -10 29 -8 104
6 157 7 24 5 27 -16 26 -13 0 -36 -6 -50 -12z m111 -227 c0 10 3 10 15 0 8 -7
25 -10 40 -6 14 4 25 2 25 -4 0 -5 -3 -9 -7 -9 -5 1 -10 0 -13 -1 -37 -14 -75
-7 -84 17 -5 13 -4 14 9 3 12 -10 15 -10 15 0z"/>
<path d="M2120 2165 c-5 -14 -10 -39 -10 -55 0 -65 43 -34 44 32 1 48 -19 62
-34 23z m20 -42 c-15 -32 -25 -16 -15 24 4 19 9 23 17 15 9 -9 8 -19 -2 -39z"/>
<path d="M2063 2118 c-17 -21 -23 -52 -14 -66 7 -11 12 -11 28 -1 17 10 19 18
12 42 -11 38 -14 40 -26 25z m8 -51 c-8 -8 -11 -5 -11 9 0 27 14 41 18 19 2
-9 -1 -22 -7 -28z"/>
<path d="M3555 2180 l-40 -7 47 -2 c26 0 50 4 53 9 7 11 1 11 -60 0z"/>
<path d="M3493 2073 c9 -2 23 -2 30 0 6 3 -1 5 -18 5 -16 0 -22 -2 -12 -5z"/>
<path d="M3418 2063 c6 -2 18 -2 25 0 6 3 1 5 -13 5 -14 0 -19 -2 -12 -5z"/>
<path d="M3573 2053 c9 -2 23 -2 30 0 6 3 -1 5 -18 5 -16 0 -22 -2 -12 -5z"/>
<path d="M3513 2043 c9 -2 23 -2 30 0 6 3 -1 5 -18 5 -16 0 -22 -2 -12 -5z"/>
<path d="M1594 2080 c-21 -16 -45 -30 -51 -30 -7 0 -13 -5 -13 -11 0 -6 -8
-23 -18 -37 -31 -45 -55 -114 -42 -122 7 -4 11 -10 11 -14 -3 -18 0 -26 9 -26
14 0 13 47 -1 52 -16 5 9 73 38 105 13 13 23 28 23 33 0 5 20 21 45 36 25 14
45 30 45 35 0 13 -3 12 -46 -21z"/>
<path d="M1694 2102 c4 -6 12 -9 20 -6 7 3 24 0 39 -5 24 -9 25 -13 17 -43
-10 -33 -1 -47 28 -48 14 0 16 16 2 25 -5 3 -10 11 -10 18 0 8 3 8 11 0 6 -6
17 -9 24 -6 8 3 23 -12 37 -36 13 -23 26 -41 31 -41 14 0 6 18 -28 62 -19 25
-31 49 -27 53 4 5 2 5 -5 2 -6 -4 -18 0 -27 8 -18 19 -123 34 -112 17z"/>
<path d="M1570 2018 c-32 -34 -23 -45 10 -13 17 16 30 30 30 32 0 10 -22 0
-40 -19z"/>
<path d="M1577 1980 c-3 -13 0 -20 9 -20 8 0 13 -4 12 -9 -3 -9 2 -11 21 -11
5 0 7 9 4 20 -3 11 -10 17 -16 13 -6 -4 -8 0 -4 10 4 11 1 17 -7 17 -8 0 -16
-9 -19 -20z"/>
<path d="M1745 1991 c-3 -5 2 -11 10 -15 8 -3 17 -1 20 3 3 5 -2 11 -10 15 -8
3 -17 1 -20 -3z"/>
<path d="M1745 1950 c3 -5 10 -10 16 -10 5 0 9 5 9 10 0 6 -7 10 -16 10 -8 0
-12 -4 -9 -10z"/>
<path d="M1706 1941 c-19 -7 -19 -8 2 -13 33 -9 47 -55 28 -95 -18 -38 -6 -45
14 -9 15 29 6 94 -15 103 -8 3 -12 9 -9 14 6 10 6 10 -20 0z"/>
<path d="M1650 1923 c-27 -11 -37 -35 -30 -70 10 -40 24 -59 50 -66 26 -7 26
9 0 23 -22 12 -28 67 -10 101 6 10 9 19 8 18 -2 0 -10 -3 -18 -6z"/>
<path d="M1870 1865 c0 -40 7 -45 20 -12 8 20 9 20 9 2 0 -11 -4 -39 -8 -62
-10 -52 -5 -55 15 -8 19 46 18 68 -5 93 -25 30 -31 28 -31 -13z"/>
<path d="M1810 1870 c0 -19 3 -21 12 -12 9 9 9 15 0 24 -9 9 -12 7 -12 -12z"/>
<path d="M1838 1865 c-6 -28 6 -34 16 -9 8 22 7 34 -3 34 -5 0 -11 -11 -13
-25z"/>
<path d="M1515 1859 c-4 -12 -2 -26 4 -32 8 -8 11 -8 11 1 0 6 7 9 15 6 10 -4
15 0 15 14 0 11 -7 23 -16 26 -22 8 -22 8 -29 -15z"/>
<path d="M1592 1850 c0 -19 2 -27 5 -17 2 9 2 25 0 35 -3 9 -5 1 -5 -18z"/>
<path d="M1457 1833 c-24 -23 34 -154 88 -202 54 -47 52 -32 -3 25 -47 48 -78
119 -75 166 2 20 0 22 -10 11z"/>
<path d="M1741 1772 c-17 -31 -13 -40 5 -14 9 13 14 26 11 29 -3 2 -10 -4 -16
-15z"/>
<path d="M1610 1768 c0 -14 30 -22 41 -11 7 7 2 12 -15 15 -14 3 -26 1 -26 -4z"/>
<path d="M1753 1720 c-13 -19 -8 -50 8 -50 4 0 13 8 19 18 11 16 11 16 6 -1
-4 -12 -2 -17 6 -15 7 3 14 17 16 33 3 24 1 27 -17 22 -11 -2 -21 -1 -23 4 -2
5 -9 0 -15 -11z"/>
<path d="M1595 1720 c-3 -5 -12 -7 -20 -3 -19 7 -19 -11 0 -27 21 -18 19 -32
-5 -25 -11 4 -20 2 -20 -4 0 -16 50 -25 62 -13 9 9 6 17 -8 33 -19 22 -19 22
4 10 26 -14 45 -5 22 9 -10 7 -11 10 -2 10 6 0 12 5 12 10 0 13 -37 13 -45 0z"/>
<path d="M1792 1641 c-18 -16 -48 -33 -65 -39 -18 -5 -24 -10 -14 -11 24 -1
87 32 111 58 28 30 7 25 -32 -8z"/>
<path d="M2750 3090 c-106 -9 565 -9 740 0 102 5 24 7 -260 6 -223 0 -439 -3
-480 -6z"/>
<path d="M3586 3053 c-1 -1 -173 -3 -382 -4 -208 -2 -419 -6 -469 -9 -66 -5
-28 -7 141 -8 293 -2 896 9 888 17 -5 5 -173 9 -178 4z"/>
<path d="M2500 2980 c-98 -9 616 -9 740 0 52 4 -76 6 -285 6 -209 0 -414 -3
-455 -6z"/>
<path d="M3538 2523 c5 -21 7 -23 10 -9 2 10 0 22 -6 28 -6 6 -7 0 -4 -19z"/>
<path d="M3716 2470 c3 -14 11 -32 16 -40 6 -10 7 -7 2 10 -3 14 -11 32 -16
40 -6 10 -7 7 -2 -10z"/>
<path d="M3601 2420 c13 -16 24 -28 27 -26 6 6 -29 56 -39 56 -5 0 0 -13 12
-30z"/>
<path d="M735 2419 c-309 -13 -327 -17 -55 -12 265 4 452 12 459 19 6 6 -179
2 -404 -7z"/>
<path d="M358 2393 c12 -2 32 -2 45 0 12 2 2 4 -23 4 -25 0 -35 -2 -22 -4z"/>
<path d="M745 2369 c-301 -14 -306 -17 -20 -13 272 5 456 12 464 20 7 6 -256
2 -444 -7z"/>
<path d="M565 2309 c-275 -14 -279 -17 -15 -12 140 3 291 8 335 13 78 7 78 7
-40 7 -66 0 -192 -4 -280 -8z"/>
<path d="M4623 2303 c37 -2 97 -2 135 0 37 2 6 3 -68 3 -74 0 -105 -1 -67 -3z"/>
<path d="M4358 2293 c23 -2 61 -2 85 0 23 2 4 4 -43 4 -47 0 -66 -2 -42 -4z"/>
<path d="M3974 2278 c-8 -12 22 -38 43 -38 21 0 15 16 -11 34 -18 11 -27 13
-32 4z"/>
<path d="M4530 2259 c-63 -3 -99 -6 -80 -8 74 -5 357 1 395 9 44 10 -110 9
-315 -1z"/>
<path d="M4523 2203 c15 -2 39 -2 55 0 15 2 2 4 -28 4 -30 0 -43 -2 -27 -4z"/>
<path d="M895 2080 c-3 -6 1 -7 9 -4 18 7 21 14 7 14 -6 0 -13 -4 -16 -10z"/>
<path d="M2703 2073 c9 -2 23 -2 30 0 6 3 -1 5 -18 5 -16 0 -22 -2 -12 -5z"/>
<path d="M300 1955 c-7 -8 -27 -16 -44 -16 -27 -2 -28 -2 -6 -6 14 -3 35 -14
47 -26 27 -25 43 -15 19 12 -13 15 -14 20 -3 29 17 14 56 5 85 -21 12 -12 22
-15 22 -9 0 16 -60 52 -86 52 -12 0 -27 -7 -34 -15z"/>
<path d="M520 1948 c47 -22 146 -33 156 -17 3 5 -19 9 -49 9 -30 0 -74 7 -97
15 -59 21 -64 18 -10 -7z"/>
<path d="M4065 1950 c-25 -11 1 -11 35 0 20 6 21 8 5 8 -11 0 -29 -3 -40 -8z"/>
<path d="M477 1893 c-10 -3 -22 -15 -27 -28 -9 -23 -10 -23 -56 -9 -59 18 -57
18 -72 -6 -12 -19 -11 -20 8 -8 25 16 46 5 78 -42 12 -18 22 -29 22 -24 0 5
-7 19 -15 30 -18 27 -8 38 19 21 36 -22 76 -37 76 -28 0 5 -13 14 -30 21 -34
14 -34 14 -20 41 6 11 21 19 35 19 14 0 25 5 25 10 0 10 -12 11 -43 3z"/>
<path d="M576 1891 c-3 -4 6 -6 19 -3 14 2 25 6 25 8 0 8 -39 4 -44 -5z"/>
<path d="M3193 1893 c9 -2 23 -2 30 0 6 3 -1 5 -18 5 -16 0 -22 -2 -12 -5z"/>
<path d="M670 1880 c-8 -5 -12 -12 -8 -15 9 -9 48 4 48 16 0 12 -21 11 -40 -1z"/>
<path d="M840 1884 c0 -3 5 -14 11 -26 14 -25 5 -35 -18 -18 -10 7 -3 -2 16
-19 19 -17 32 -34 28 -38 -4 -3 -22 7 -40 23 l-32 29 26 -30 c14 -16 33 -41
42 -55 l17 -24 0 27 c0 33 17 35 56 5 l29 -22 -19 22 c-10 12 -27 24 -37 27
-19 6 -59 64 -59 85 0 7 7 10 16 6 8 -3 12 -2 9 4 -6 10 -45 14 -45 4z"/>
<path d="M2335 1870 c3 -5 11 -10 16 -10 6 0 7 5 4 10 -3 6 -11 10 -16 10 -6
0 -7 -4 -4 -10z"/>
<path d="M900 1867 c0 -2 15 -14 33 -27 20 -15 27 -17 18 -6 -13 16 -51 41
-51 33z"/>
<path d="M747 1848 c-5 -17 13 -58 27 -58 6 0 5 5 -2 12 -21 21 -15 40 10 32
20 -6 21 -5 9 10 -16 19 -38 21 -44 4z"/>
<path d="M3110 1851 l-45 -7 43 -5 c28 -3 47 0 54 8 6 7 7 12 2 11 -5 0 -29
-4 -54 -7z"/>
<path d="M3204 1825 c11 -8 25 -15 30 -15 6 0 2 7 -8 15 -11 8 -25 15 -30 15
-6 0 -2 -7 8 -15z"/>
<path d="M2501 1797 c13 -13 26 -22 28 -20 7 5 -31 43 -42 43 -6 0 1 -10 14
-23z"/>
<path d="M990 1788 c1 -21 2 -21 11 -5 8 14 14 15 32 7 21 -11 21 -11 3 4 -28
22 -46 20 -46 -6z"/>
<path d="M2305 1800 c-3 -5 -19 -10 -36 -10 -53 0 -30 -60 27 -67 13 -2 24 1
24 7 0 5 -11 10 -24 10 -32 0 -55 27 -31 36 9 4 27 2 39 -4 28 -12 51 0 43 22
-7 18 -32 21 -42 6z"/>
<path d="M3675 1800 c-7 -11 25 -64 33 -55 3 3 0 11 -6 17 -18 18 -15 38 5 31
11 -4 14 -3 9 5 -9 14 -33 16 -41 2z"/>
<path d="M3752 1797 c-14 -16 19 -40 43 -31 20 8 19 21 -4 34 -25 13 -26 13
-39 -3z"/>
<path d="M320 1791 c0 -6 4 -13 10 -16 6 -3 7 1 4 9 -7 18 -14 21 -14 7z"/>
<path d="M452 1770 c-15 -12 -19 -21 -11 -26 6 -4 16 1 21 10 5 9 16 16 24 16
8 0 12 5 9 10 -9 14 -17 12 -43 -10z"/>
<path d="M560 1759 l0 -32 -27 24 c-23 20 -25 20 -9 2 19 -23 15 -43 -9 -43
-8 0 -16 -4 -19 -9 -4 -5 3 -7 14 -4 16 4 20 0 21 -23 l1 -29 9 33 c5 18 15
32 22 31 33 -4 37 1 21 26 -15 23 -15 25 2 25 9 0 26 -7 36 -17 10 -9 18 -12
18 -6 0 14 -31 39 -57 47 -21 7 -23 4 -23 -25z"/>
<path d="M3950 1770 c0 -10 5 -22 12 -26 8 -5 9 -2 5 10 -8 22 15 31 41 17 12
-6 28 -8 36 -5 30 11 16 19 -39 21 -48 2 -55 0 -55 -17z"/>
<path d="M2190 1760 c0 -5 5 -10 11 -10 5 0 7 5 4 10 -3 6 -8 10 -11 10 -2 0
-4 -4 -4 -10z"/>
<path d="M3100 1761 c0 -5 9 -7 20 -4 11 3 20 7 20 9 0 2 -9 4 -20 4 -11 0
-20 -4 -20 -9z"/>
<path d="M3860 1760 c-13 -8 -12 -10 3 -10 9 0 17 5 17 10 0 12 -1 12 -20 0z"/>
<path d="M1260 1749 c0 -5 5 -7 10 -4 6 3 10 8 10 11 0 2 -4 4 -10 4 -5 0 -10
-5 -10 -11z"/>
<path d="M656 1735 c4 -8 8 -15 10 -15 2 0 4 7 4 15 0 8 -4 15 -10 15 -5 0 -7
-7 -4 -15z"/>
<path d="M2465 1730 c10 -11 23 -20 28 -20 6 0 2 9 -8 20 -10 11 -23 20 -28
20 -6 0 -2 -9 8 -20z"/>
<path d="M3225 1740 c3 -5 13 -10 21 -10 8 0 12 5 9 10 -3 6 -13 10 -21 10 -8
0 -12 -4 -9 -10z"/>
<path d="M3397 1729 c18 -5 35 -14 38 -19 3 -5 13 -6 21 -3 11 4 4 10 -23 19
-21 8 -45 13 -53 13 -8 0 -1 -5 17 -10z"/>
<path d="M2050 1720 c-9 -6 -10 -10 -3 -10 6 0 15 5 18 10 8 12 4 12 -15 0z"/>
<path d="M2080 1720 c0 -5 5 -10 11 -10 5 0 7 5 4 10 -3 6 -8 10 -11 10 -2 0
-4 -4 -4 -10z"/>
<path d="M2140 1710 c0 -5 -8 -7 -17 -4 -10 4 -3 -4 16 -15 18 -12 36 -19 39
-16 4 3 0 10 -8 15 -12 8 -9 10 10 11 23 0 23 1 5 9 -27 12 -45 12 -45 0z"/>
<path d="M3065 1711 c-2 -5 4 -11 15 -14 11 -3 20 -2 20 3 0 12 -28 21 -35 11z"/>
<path d="M398 1700 c38 -9 71 -35 83 -67 14 -38 28 -26 16 13 -6 20 -13 31
-15 25 -2 -7 -15 -2 -34 14 -17 14 -41 25 -56 24 -25 -1 -24 -2 6 -9z"/>
<path d="M802 1680 c5 -16 17 -35 26 -42 13 -11 12 -8 -2 14 -10 15 -15 31
-12 37 3 5 -1 11 -8 14 -12 5 -13 1 -4 -23z"/>
<path d="M884 1684 c6 -23 5 -24 -16 -13 -31 16 -21 6 25 -25 50 -34 54 -33
22 6 -25 29 -25 33 -9 38 16 6 15 7 -5 13 -20 5 -22 3 -17 -19z"/>
<path d="M1209 1688 c27 -31 36 -35 27 -13 -3 8 -1 15 5 15 6 0 7 5 4 10 -5 8
-11 8 -19 1 -9 -7 -17 -7 -27 2 -7 6 -3 0 10 -15z"/>
<path d="M2221 1701 c-10 -6 -9 -10 5 -15 20 -8 25 -4 16 11 -4 7 -13 9 -21 4z"/>
<path d="M656 1681 c16 -10 33 -16 37 -14 14 8 -10 26 -40 29 l-27 3 30 -18z"/>
<path d="M2284 1689 c-13 -5 -7 -8 24 -8 23 -1 42 1 42 3 0 8 -48 12 -66 5z"/>
<path d="M973 1653 c8 -9 22 -10 42 -4 30 8 29 8 -12 12 -34 4 -40 2 -30 -8z"/>
<path d="M1064 1638 c11 -7 28 -21 38 -30 10 -10 26 -18 36 -18 16 1 16 1 0
14 -10 7 -18 18 -18 24 0 6 -6 9 -14 6 -8 -3 -25 -1 -38 5 -20 10 -21 10 -4
-1z"/>
<path d="M4706 1603 c-19 -55 -19 -53 -7 -53 5 0 11 9 14 20 5 18 11 20 59 15
29 -3 82 -1 118 4 l65 10 -80 -5 c-82 -5 -119 1 -109 17 7 13 -20 11 -33 -2
-7 -7 -9 -3 -6 15 8 42 -4 30 -21 -21z"/>
<path d="M4342 1624 c-28 -19 -28 -30 1 -38 22 -6 22 -6 2 -22 -19 -15 -18
-16 20 -10 22 3 57 7 78 7 20 1 40 5 43 10 9 15 34 10 34 -6 0 -19 5 -19 35 1
30 19 32 40 7 53 -23 12 -63 4 -79 -17 -12 -14 -13 -14 -13 1 0 21 -23 22 -40
2 -19 -22 -28 -18 -22 10 4 21 1 25 -20 25 -13 0 -34 -7 -46 -16z m48 -8 c0
-20 -14 -28 -36 -19 -16 6 -16 7 2 20 23 17 34 17 34 -1z"/>
<path d="M1010 1626 c0 -2 8 -10 18 -17 15 -13 16 -12 3 4 -13 16 -21 21 -21
13z"/>
<path d="M1138 1623 c7 -3 16 -2 19 1 4 3 -2 6 -13 5 -11 0 -14 -3 -6 -6z"/>
<path d="M4030 1619 c-14 -4 -42 -7 -62 -8 -21 -1 -38 -6 -38 -12 0 -5 -4 -7
-10 -4 -10 6 -293 14 -640 18 -96 1 -305 -2 -465 -7 -159 -5 -344 -11 -410
-12 -196 -4 -438 -21 -468 -33 -16 -6 -41 -11 -57 -11 -16 0 -35 -7 -43 -15
-8 -8 -29 -16 -46 -17 -17 -1 -30 -7 -27 -13 2 -5 10 -8 17 -6 41 11 143 15
204 8 39 -5 90 -5 115 -2 161 22 518 33 700 21 120 -8 137 -7 149 8 11 13 32
16 100 16 47 0 103 -5 125 -9 26 -6 45 -6 56 1 12 8 70 8 202 0 113 -7 197 -8
219 -2 57 15 257 33 295 27 22 -4 50 -1 70 8 35 14 47 4 17 -14 -33 -19 6 -11
54 11 59 28 58 27 51 34 -4 3 -21 -2 -40 -11 l-33 -16 25 21 c19 17 20 20 6
16 -10 -4 -24 -2 -30 2 -6 5 -22 5 -36 1z m-1085 -29 c18 -5 3 -6 -40 -3 -45
3 -81 0 -100 -8 l-30 -13 40 -6 c38 -5 37 -6 -27 -14 -43 -5 -74 -4 -87 3 -11
6 -84 12 -168 12 -127 1 -140 3 -93 11 30 5 110 10 177 12 68 1 126 6 130 9 9
9 160 7 198 -3z m965 0 c0 -5 -15 -9 -32 -9 l-33 1 30 8 c17 4 31 8 33 9 1 0
2 -3 2 -9z m95 0 c-3 -5 -14 -10 -23 -10 -15 0 -15 2 -2 10 20 13 33 13 25 0z
m-735 -13 c-57 -10 -88 -11 -180 -8 -99 4 -24 16 107 17 113 1 122 0 73 -9z
m310 9 c0 -13 -111 -37 -150 -32 -25 2 -72 5 -104 5 -133 2 -20 16 227 30 15
0 27 -1 27 -3z m115 -7 c-51 -10 -92 -10 -50 1 17 4 44 8 60 8 25 0 24 -2 -10
-9z m-1338 -25 c66 -12 19 -25 -90 -24 -62 0 -119 0 -127 -1 -8 -1 -67 -1
-130 1 -109 2 -112 3 -56 11 32 5 61 11 64 13 7 7 301 7 339 0z m588 -4 c-3
-5 -16 -10 -28 -9 -21 0 -21 1 -2 9 28 12 37 12 30 0z m-92 -17 c-7 -2 -21 -2
-30 0 -10 3 -4 5 12 5 17 0 24 -2 18 -5z m-750 -20 c-7 -2 -21 -2 -30 0 -10 3
-4 5 12 5 17 0 24 -2 18 -5z"/>
<path d="M4189 1610 c-13 -10 -19 -19 -13 -20 5 0 16 6 24 13 8 7 7 2 -3 -15
-18 -29 -22 -48 -9 -48 4 0 13 14 19 31 7 17 17 28 22 24 6 -3 8 0 5 9 -3 8 2
16 13 19 12 3 10 5 -8 6 -15 0 -37 -8 -50 -19z"/>
<path d="M4603 1590 c12 -42 21 -50 31 -25 3 9 12 12 22 8 9 -3 20 0 25 8 11
17 11 21 -1 39 -7 12 -12 11 -30 -5 -21 -19 -23 -19 -35 -2 -20 27 -23 20 -12
-23z"/>
<path d="M380 1611 c0 -6 4 -13 10 -16 6 -3 7 1 4 9 -7 18 -14 21 -14 7z"/>
<path d="M1260 1510 c0 -4 -35 -8 -77 -9 -42 -1 -79 -4 -82 -6 -7 -8 151 -4
179 4 25 7 25 7 3 13 -13 3 -23 3 -23 -2z"/>
<path d="M1635 1512 c-1 -2 -31 -7 -66 -11 -50 -7 -37 -8 56 -4 66 2 121 6
123 8 2 2 -22 5 -53 7 -31 1 -58 2 -60 0z"/>
<path d="M490 1490 c0 -5 5 -10 10 -10 6 0 10 5 10 10 0 6 -4 10 -10 10 -5 0
-10 -4 -10 -10z"/>
<path d="M608 1493 c12 -2 30 -2 40 0 9 3 -1 5 -23 4 -22 0 -30 -2 -17 -4z"/>
<path d="M798 1493 c7 -3 16 -2 19 1 4 3 -2 6 -13 5 -11 0 -14 -3 -6 -6z"/>
<path d="M853 1494 c8 -9 117 -10 117 -2 0 5 -28 8 -62 8 -34 0 -59 -3 -55 -6z"/>
<path d="M985 1490 c-4 -6 13 -10 49 -10 31 0 56 4 56 8 0 12 -97 15 -105 2z"/>
</g>
</svg>
